<svg width="24" height="24" viewBox="0 0 24 24" fill="none" xmlns="http://www.w3.org/2000/svg">
<path d="M4.09961 6.00078C4.09961 5.81513 4.17336 5.63708 4.30463 5.50581C4.43591 5.37453 4.61396 5.30078 4.79961 5.30078H19.1996C19.3853 5.30078 19.5633 5.37453 19.6946 5.50581C19.8259 5.63708 19.8996 5.81513 19.8996 6.00078C19.8996 6.18643 19.8259 6.36448 19.6946 6.49576C19.5633 6.62703 19.3853 6.70078 19.1996 6.70078H4.79961C4.61396 6.70078 4.43591 6.62703 4.30463 6.49576C4.17336 6.36448 4.09961 6.18643 4.09961 6.00078Z" fill="#2F2F37" stroke="black"/>
<path d="M4.09961 12.0008C4.09961 11.8151 4.17336 11.6371 4.30463 11.5058C4.43591 11.3745 4.61396 11.3008 4.79961 11.3008H19.1996C19.3853 11.3008 19.5633 11.3745 19.6946 11.5058C19.8259 11.6371 19.8996 11.8151 19.8996 12.0008C19.8996 12.1864 19.8259 12.3645 19.6946 12.4958C19.5633 12.627 19.3853 12.7008 19.1996 12.7008H4.79961C4.61396 12.7008 4.43591 12.627 4.30463 12.4958C4.17336 12.3645 4.09961 12.1864 4.09961 12.0008Z" fill="#2F2F37" stroke="black"/>
<path d="M4.09961 18.0008C4.09961 17.8151 4.17336 17.6371 4.30463 17.5058C4.43591 17.3745 4.61396 17.3008 4.79961 17.3008H19.1996C19.3853 17.3008 19.5633 17.3745 19.6946 17.5058C19.8259 17.6371 19.8996 17.8151 19.8996 18.0008C19.8996 18.1864 19.8259 18.3645 19.6946 18.4958C19.5633 18.627 19.3853 18.7008 19.1996 18.7008H4.79961C4.61396 18.7008 4.43591 18.627 4.30463 18.4958C4.17336 18.3645 4.09961 18.1864 4.09961 18.0008Z" fill="#2F2F37" stroke="black"/>
</svg>
